# xmcd
#
# Track frame offsets: 
#        150
#        12223
#        27510
#        41858
#        52358
#        66503
#        79175
#        91058
#        105685
#        119265
#        132203
#        146565
#        158555
#        172760
#        183970
#        197335
#
# Disc length: 2789 seconds
#
# Revision: 0
# Processed by: cddbd v1.5PL3 Copyright (c) Steve Scherf et al.
# Submitted via: ExactAudioCopy v0.90b4
#
DISCID=d50ae310
DTITLE=Ronnie Milsap - Believe It
DYEAR=1900
DGENRE=Country
TTITLE0=My Love Is Deep, My Love Is Wide
TTITLE1=Amazing Love
TTITLE2=Four Walls
TTITLE3=Streets Of Gold
TTITLE4=Love The Second Time Around
TTITLE5=Please Don't Tell Me How The Story Ends
TTITLE6=All My Roads (Lead Back To You)
TTITLE7=Blue Ridge Mountains Turnin' Green
TTITLE8=That Girl Who Waits On Tables
TTITLE9=I Hate You
TTITLE10=Branded Man
TTITLE11=Where Love Goes When It Dies
TTITLE12=Brothers, Strangers And Friends
TTITLE13=Comin' Down With Love
TTITLE14=Pass Me By
TTITLE15=You're Drivin' Me Out Of Your Mind
EXTD=
EXTT0=
EXTT1=
EXTT2=
EXTT3=
EXTT4=
EXTT5=
EXTT6=
EXTT7=
EXTT8=
EXTT9=
EXTT10=
EXTT11=
EXTT12=
EXTT13=
EXTT14=
EXTT15=
PLAYORDER=
